<svg xmlns="http://www.w3.org/2000/svg" width="160" height="160" viewBox="0 0 1840.57 1840.57" shape-rendering="geometricPrecision" text-rendering="geometricPrecision" image-rendering="optimizeQuality" fill-rule="evenodd" clip-rule="evenodd"><path fill="#e0e0e0" d="M0 0h1840.57v1840.57H0z"/><path d="M74.23 1840.57H1791.2c0-122.75-22.38-293.3-48.36-410.19-40.54-182.5-116.45-350.83-297.43-389.79-96.97-20.87-108.53 1.45-170.71 43.85-225.4 153.7-461.65 155.15-688.13 3.19-76.21-51.13-79.36-64.53-166.2-48.79-65.05 11.79-118.33 39.35-156.87 74.15-181.98 164.26-202.54 482.63-189.27 727.59z" fill="#6f6f6f"/><path d="M892.94 179.01c-248.49 19.68-452.95 231.2-431.13 504.35 19.64 245.98 237.71 449.12 507.32 425.93 245.39-21.11 447.53-235.6 424.99-506.62-20.17-242.4-235.44-444.71-501.18-423.66z" fill="#707070"/></svg>