<svg xmlns="http://www.w3.org/2000/svg" width="160" height="160" viewBox="0 0 4233.32 4233.32" shape-rendering="geometricPrecision" text-rendering="geometricPrecision" image-rendering="optimizeQuality" fill-rule="evenodd" clip-rule="evenodd"><path fill="#e0e0e0" d="M0 0h4233.32v4233.32H0z"/><path d="M4233.32 4233.32H.01v-1600.2h737.83c29.88-280.25 113.1-553.95 303.24-725.57 63.53-57.36 151.35-102.79 258.58-122.23 143.14-25.93 148.34-3.85 273.95 80.43 373.33 250.49 762.74 248.09 1134.29-5.26 102.5-69.89 121.54-106.68 281.39-72.28 298.33 64.22 423.45 341.71 490.28 642.53 13.44 60.47 26.3 129.65 37.61 202.38h716.15v1600.2zM2078.63 368.02c-409.6 32.44-746.62 381.1-710.67 831.35 32.38 405.46 391.83 740.31 836.25 702.09 404.49-34.8 737.7-388.35 700.53-835.1-33.24-399.55-388.09-733.04-826.11-698.34z" fill="#707070"/><path fill="#fff" fill-rule="nonzero" d="M2527.69 3524.57l124.51-124.51-399.19-399.19 399.53-399.53-124.17-124.17-399.53 399.53-399.18-399.19-124.51 124.52 399.19 399.19-399.53 399.53 124.17 124.16 399.52-399.53z"/></svg>