<svg xmlns="http://www.w3.org/2000/svg" width="160" height="160" viewBox="0 0 3090.03 3090.03" shape-rendering="geometricPrecision" text-rendering="geometricPrecision" image-rendering="optimizeQuality" fill-rule="evenodd" clip-rule="evenodd"><defs><style>.fil1{fill:#707070}</style></defs><g id="Layer_x0020_1"><path fill="#e0e0e0" d="M0 0h3090.03v3090.03H0z"/><path class="fil1" d="M803.94 1977.21c-3.97-70.96-.58-151.61-.58-223.62v-672.08c0-106.14-19.91-155.16 69.54-154.61 74.65.45 149.42.05 224.07.05l1120.18-.06c39.39-.24 63.59 6.66 68.62 43.21 4.23 30.72 1.66 924.82.8 1007.99l-46.34-46.63c-16.6-18.34-25.01-28.92-44.6-48.12l-219.09-236.8c-14.1-16.23-29.09-29.5-43.04-45.71-22.95-26.64-61.29-83.77-117.13-43.27-99.07 71.83-115.2 142.99-214.15 26.77-46.84-55.01-130.86-137.23-176.61-190.17-30.38-35.15-81.58-51.73-125.29-12.76-12.63 11.26-30.2 34.52-42.76 49.84l-453.62 545.97zm1603.23 220.57c8.93-48.67 3.06-1099.02 3.06-1201.25 0-76.24 9.06-120.25-36.66-164.23-40.56-39.02-105.83-28.9-171.92-28.9H996.54c-66.29 0-135.02-1.78-201.01-.01-60.7 1.64-102.34 35.68-112.83 88.05-8.68 43.32-2.88 1104.36-2.88 1202.05 0 76.29-9.12 120.24 36.66 164.23 40.52 38.93 105.95 28.9 171.92 28.9h803.4c188.96 0 417.1 4.07 602.73.04 60.39-1.31 103-36.28 112.64-88.88z"/><path class="fil1" d="M1952.98 1054c-93.55 12.54-175.31 97.23-157.59 210.04 14.33 91.25 99.68 171.45 210.04 154.26 91.37-14.23 171.66-99.83 154.49-210.1-14.33-91.99-97.47-168.87-206.94-154.2z"/></g></svg>