<svg xmlns="http://www.w3.org/2000/svg" width="20.759" height="18.13" viewBox="0 0 542.95 474.2" shape-rendering="geometricPrecision" text-rendering="geometricPrecision" image-rendering="optimizeQuality" fill-rule="evenodd" clip-rule="evenodd"><path d="M500.97 41.98l.51.55c27.63 27.64 41.47 64 41.47 100.37 0 36.35-13.81 72.83-41.47 100.75-72.93 77.7-154.68 154.74-230.49 230.55-53.23-53.11-193.72-179.45-229.44-229.45-13.32-13.61-23.73-29.47-30.78-46.68A144.036 144.036 0 01-.01 143.38c0-19.11 3.67-37.75 10.74-55.04 7.02-17.2 17.38-32.91 30.83-46.36l.96-.96C70.14 13.73 106.27.06 142.45.11c36.18.06 72.48 13.85 100.34 41.44 9.54 8.99 18.89 18.83 28.19 28.13l27.25-27.75C326.22 13.97 362.92-.01 399.57-.01c36.72.06 73.44 14.04 101.38 41.98z" fill="#000000" fill-rule="nonzero"/></svg>